<svg width="28" height="28" viewBox="0 0 28 28" xmlns="http://www.w3.org/2000/svg">
  <title>Next</title>
  <desc>Right pointing arrow</desc>
  <path d="M22.86 13.97l-5.84-5.83c-.1-.1-.2-.14-.35-.14-.13 0-.24.05-.34.14-.1.1-.14.2-.14.34s.04.25.13.35l5 5H5.5c-.15 0-.26.05-.36.14-.1.1-.14.22-.14.36 0 .13.05.24.14.34.1.1.2.14.35.14h15.84l-5 5.02c-.1.1-.15.2-.15.34 0 .13.04.25.13.34.05.05.1.1.16.1.05.03.1.04.17.04s.13 0 .2-.03c.05 0 .1-.05.15-.1l5.84-5.83c.1-.1.14-.2.14-.35 0-.13-.05-.25-.14-.35z" fill="#ffffff" fill-rule="evenodd"/>
</svg>