<svg width="28" height="28" viewBox="0 0 28 28" xmlns="http://www.w3.org/2000/svg">
  <title>Shopping cart</title>
  <desc>Cart icon</desc>
  <path d="M13 23c-.27 0-.53-.05-.77-.16-.25-.1-.46-.24-.64-.42-.2-.18-.33-.4-.44-.64-.1-.24-.16-.5-.16-.77s.05-.53.16-.78c.1-.24.25-.45.43-.63.17-.2.38-.34.63-.44.24-.1.5-.16.77-.16.28 0 .54.06.78.16s.46.25.64.43c.18.17.32.38.43.62.1.25.15.5.15.8 0 .26-.05.52-.15.76-.1.25-.25.46-.43.64s-.4.32-.64.42c-.24.1-.5.16-.78.16zm0-3c-.27 0-.5.1-.7.3-.2.2-.3.43-.3.7 0 .28.1.5.3.7.2.2.43.3.7.3.28 0 .52-.1.7-.3.2-.2.3-.42.3-.7 0-.27-.1-.5-.3-.7-.18-.2-.42-.3-.7-.3zm7 3c-.27 0-.53-.05-.77-.16-.25-.1-.46-.24-.64-.42-.2-.18-.34-.4-.44-.64-.1-.24-.16-.5-.16-.77s.05-.53.16-.78c.1-.24.25-.45.43-.63.17-.2.38-.34.63-.44.24-.1.5-.16.77-.16.28 0 .54.06.78.16s.46.25.64.43c.18.17.33.38.43.62.1.25.16.5.16.8 0 .26-.05.52-.15.76-.1.25-.25.46-.43.64s-.4.32-.64.42c-.24.1-.5.16-.78.16zm0-3c-.27 0-.5.1-.7.3-.2.2-.3.43-.3.7 0 .28.1.5.3.7.2.2.43.3.7.3.28 0 .5-.1.7-.3.2-.2.3-.42.3-.7 0-.27-.1-.5-.3-.7-.2-.2-.42-.3-.7-.3zm2.54-12.53c.13.15.2.32.27.5.06.2.07.4.04.6l-.68 4.03c-.06.38-.25.72-.56 1-.3.3-.66.45-1.05.48l-9.96.87.23 1.5c.03.14.1.27.24.38.14.1.28.17.44.17h10c.14 0 .26.05.36.15.1.1.15.2.15.35 0 .14-.04.25-.14.35-.1.1-.22.15-.35.15h-10c-.4 0-.76-.14-1.08-.4-.32-.28-.5-.6-.57-1L8.18 6.57c-.03-.15-.1-.28-.24-.4-.13-.1-.28-.16-.44-.16h-1c-.14 0-.26-.04-.35-.14-.1-.1-.15-.22-.15-.36 0-.14.05-.26.15-.35.1-.1.2-.15.36-.15h1c.4 0 .76.14 1.08.4.33.28.52.62.58 1l.1.6H21.5c.2 0 .4.04.58.12.2.1.34.2.46.35zm-.7.94c.02-.05 0-.1 0-.15 0-.05-.03-.1-.06-.13-.03-.04-.07-.07-.12-.1L21.5 8H9.44l1 5.96 10.03-.87c.17-.03.32-.1.46-.23.15-.14.23-.28.26-.44l.67-4.02z" fill="#ffffff" fill-rule="evenodd"/>
</svg>