<svg width="28" height="28" viewBox="0 0 28 28" xmlns="http://www.w3.org/2000/svg">
  <title>Home</title>
  <desc>Home icon</desc>
  <path d="M22.9 15.2c.07.1.1.2.1.33 0 .12-.06.22-.15.3-.1.1-.2.13-.32.12-.13 0-.23-.05-.3-.14l-1.93-2.1v7.2c0 .38-.13.7-.4.96-.26.26-.58.4-.95.4h-9.9c-.37 0-.7-.14-.96-.4-.27-.27-.4-.58-.4-.95v-7.2l-1.92 2.1c-.04.06-.1.1-.15.12-.06.02-.12.04-.18.04-.05 0-.1 0-.16-.03-.06-.02-.1-.05-.15-.1-.1-.08-.14-.18-.15-.3 0-.13.03-.23.1-.33l7.96-8.78c.12-.14.27-.24.43-.3.15-.08.32-.12.5-.12s.35.04.5.1c.18.08.32.18.44.32l7.95 8.78zm-7.1 6.15V17.3c0-.12-.04-.23-.13-.3-.1-.1-.2-.15-.32-.15h-2.7c-.13 0-.23.05-.32.14-.1.07-.13.18-.13.3v4.05h3.6zm3.6-.44v-8.2l-5.13-5.68-.12-.1L14 6.9c-.05 0-.1 0-.14.03-.05.02-.1.05-.13.1L8.6 12.7v8.2c0 .13.05.23.14.32.08.1.2.13.3.13h2.26V17.3c0-.37.13-.68.4-.95.26-.26.58-.4.95-.4h2.7c.37 0 .7.14.95.4.27.27.4.58.4.95v4.05h2.25c.12 0 .23-.04.32-.13.08-.1.13-.2.13-.3z" fill="#404348" fill-rule="evenodd"/>
</svg>