<svg width="28" height="28" viewBox="0 0 28 28" xmlns="http://www.w3.org/2000/svg">
  <title>Email</title>
  <desc>Mail icon</desc>
  <path d="M21.58 8c.4 0 .73.15 1 .44.28.3.42.64.42 1.05v9c0 .4-.14.77-.42 1.06-.27.3-.6.44-1 .44H6.42c-.4 0-.73-.14-1-.44-.28-.3-.42-.65-.42-1.06v-9c0-.42.14-.77.42-1.06.27-.3.6-.44 1-.44h15.16zm0 1H6.42h-.04-.04l7.13 5.03c.14.1.3.14.53.14.2 0 .4-.05.53-.14L21.66 9h-.08zm0 10c.13 0 .24-.05.33-.15.1-.1.15-.22.15-.35V9.93l-7 4.93c-.15.1-.3.18-.5.23-.18.04-.37.07-.55.07-.2 0-.38-.03-.56-.08-.18-.06-.35-.14-.5-.24l-7-4.93v8.57c0 .13.05.25.14.35.1.1.2.15.34.15h15.16z" fill="#404348" fill-rule="evenodd"/>
</svg>