<svg width="28" height="28" viewBox="0 0 28 28" xmlns="http://www.w3.org/2000/svg">
  <title>Navigation</title>
  <desc>Menu icon</desc>
  <path d="M20.4 10.6h-12c-.1 0-.2-.07-.28-.22-.08-.16-.12-.35-.12-.57 0-.22.04-.4.12-.57.08-.15.17-.23.28-.23h12c.1 0 .2.08.28.23.08.16.12.35.12.58 0 .23-.04.42-.12.57-.08.16-.17.24-.28.24zm0 4h-12c-.1 0-.2-.07-.28-.22-.08-.16-.12-.35-.12-.57 0-.22.04-.4.12-.57.08-.15.17-.23.28-.23h12c.1 0 .2.08.28.23.08.16.12.35.12.58 0 .23-.04.42-.12.57-.08.16-.17.24-.28.24zm0 4h-12c-.1 0-.2-.07-.28-.23-.08-.15-.12-.34-.12-.56 0-.22.04-.4.12-.57.08-.15.17-.23.28-.23h12c.1 0 .2.08.28.23.08.16.12.35.12.58 0 .23-.04.42-.12.57-.08.16-.17.24-.28.24z" fill="#404348" fill-rule="evenodd"/>
</svg>