<svg width="28" height="28" viewBox="0 0 28 28" xmlns="http://www.w3.org/2000/svg">
  <title>Phone</title>
  <desc>Phone icon</desc>
  <path d="M21.82 12.78c-.26 0-.56-.02-.9-.07-.35-.03-.7-.1-1.03-.18-.34-.08-.66-.18-.94-.3-.3-.12-.5-.26-.66-.4-.17-.18-.3-.38-.36-.6l-.15-.58c-.05-.22-.1-.38-.13-.47-.04-.08-.1-.15-.2-.2-.23-.1-.48-.18-.75-.25-.27-.08-.56-.14-.86-.2-.3-.05-.62-.1-.95-.1-.32-.04-.65-.05-1-.05-.32 0-.65 0-.98.04-.32.03-.64.07-.94.13-.3.05-.58.1-.85.18-.26.08-.5.17-.74.26-.1.04-.17.1-.2.2-.05.1-.1.25-.13.47-.03.18-.08.38-.15.6-.06.2-.18.4-.37.58-.16.17-.4.3-.7.43-.3.1-.57.2-.83.26-.33.08-.67.14-1 .2-.35.04-.67.06-.96.06-.34 0-.6-.03-.84-.1-.22-.06-.4-.15-.53-.28-.2-.2-.36-.42-.48-.68-.12-.26-.2-.52-.2-.8-.03-.23 0-.5.07-.8.07-.33.27-.64.58-.96.26-.25.54-.5.84-.72.3-.23.62-.44.96-.64.34-.2.7-.38 1.08-.54.38-.17.8-.33 1.2-.47l1.2-.33c.42-.1.84-.18 1.28-.24.43-.07.87-.12 1.3-.15.45-.03.9-.05 1.34-.05.45 0 .9.02 1.35.05.45.04.9.1 1.32.16.43.07.86.15 1.27.25.42.1.82.2 1.22.33.42.14.83.3 1.22.47.4.17.75.35 1.1.55.34.2.66.42.96.65.3.23.6.47.85.72.26.27.44.55.55.84.1.3.15.6.13.9 0 .28-.08.55-.2.8-.12.27-.28.5-.47.7-.13.13-.3.22-.53.28-.22.07-.5.1-.83.1zm-7.9-4.42c.37 0 .74.02 1.1.05.36.04.7.08 1.04.14.33.06.65.13.95.22.3.1.6.2.85.3.36.15.6.37.7.64.1.27.18.53.22.75.03.14.06.27.1.38.02.1.07.2.15.28.05.07.18.14.38.22.2.08.43.15.7.22.27.07.55.13.85.17.3.06.6.08.87.08.24 0 .4 0 .5-.04l.15-.06c.16-.15.28-.4.38-.74.1-.35-.04-.7-.4-1.05-.45-.46-.98-.87-1.6-1.22-.6-.36-1.28-.67-2.02-.9-.74-.26-1.52-.45-2.36-.58-.83-.13-1.7-.2-2.6-.2-.87 0-1.72.07-2.55.2-.83.12-1.6.3-2.34.56-.73.25-1.4.54-2 .9-.62.35-1.14.74-1.6 1.2-.13.13-.23.3-.3.45-.07.18-.1.35-.08.52 0 .15.06.3.12.45.07.15.16.28.27.4l.14.05c.1.03.27.04.52.04.28 0 .57-.02.87-.07.3-.05.58-.1.84-.18l.7-.2c.18-.1.3-.16.38-.22.07-.07.12-.17.15-.28l.08-.38c.05-.22.12-.48.23-.75.1-.3.34-.5.7-.65l.84-.3c.3-.08.6-.15.94-.2.33-.07.68-.1 1.03-.14.37-.02.74-.04 1.1-.04zm6.5 13.53h-13c-.33 0-.64-.08-.94-.2-.3-.14-.57-.32-.8-.55-.22-.24-.4-.52-.5-.82-.1-.3-.16-.63-.14-.97 0-.02 0-.14.04-.36.02-.22.07-.5.16-.85.1-.34.22-.74.4-1.18.16-.44.38-.9.67-1.35.18-.27.36-.53.56-.78.2-.24.4-.47.64-.7l.7-.6c.26-.17.52-.34.8-.5.33-.2.7-.36 1.07-.5.38-.15.77-.27 1.2-.36.4-.1.83-.17 1.28-.22.44-.05.9-.07 1.38-.07.47 0 .93 0 1.38.06.46.05.9.12 1.3.22s.8.2 1.2.36c.36.14.72.3 1.06.5l.8.5.7.6c.22.23.43.46.63.7.2.25.38.5.54.78.3.46.52.9.7 1.35.16.44.3.84.37 1.18.1.35.16.63.18.85l.03.36c.03.34 0 .66-.12.97-.1.3-.28.58-.5.82-.24.23-.5.4-.8.54-.3.12-.62.2-.95.2zm-6.5-9.02c-.77 0-1.5.07-2.17.2-.67.15-1.3.35-1.86.62-.57.27-1.08.6-1.53 1-.46.4-.85.88-1.2 1.42-.25.4-.46.8-.6 1.2-.16.4-.27.74-.35 1.05-.08.3-.13.56-.15.75l-.03.3c-.02.2 0 .38.08.56.06.18.16.34.3.47.12.14.27.25.45.32.17.08.36.1.55.1h13c.2 0 .4-.02.57-.1.16-.07.32-.18.45-.32.13-.13.23-.3.3-.47.06-.18.08-.37.07-.56 0 0 0-.1-.04-.3-.02-.2-.07-.44-.15-.75-.08-.3-.2-.66-.34-1.06-.16-.38-.36-.78-.62-1.18-.34-.54-.74-1-1.2-1.4-.44-.4-.95-.75-1.52-1.02-.57-.27-1.18-.47-1.85-.6-.67-.15-1.4-.22-2.17-.22zm0 7c-.4 0-.8-.07-1.16-.23-.36-.16-.68-.38-.95-.65-.26-.27-.48-.58-.64-.95-.15-.36-.23-.75-.23-1.16 0-.43.08-.82.23-1.18.16-.37.38-.7.65-.96.28-.27.6-.48.96-.64.36-.16.75-.24 1.17-.24.4 0 .8.08 1.16.24.36.16.67.37.95.64.27.27.5.6.64.96.15.36.23.75.23 1.17 0 .4-.08.8-.24 1.15-.16.37-.38.68-.65.95-.28.27-.6.5-.96.65-.37.16-.76.24-1.17.24zm0-5c-.27 0-.52.06-.77.16-.24.1-.46.25-.64.43-.17.18-.3.4-.42.64-.1.25-.15.5-.15.8 0 .26.05.52.15.77.1.24.25.45.43.63.2.18.4.32.65.42.25.1.5.16.78.16.27 0 .53-.05.77-.16.25-.1.46-.24.64-.42.2-.18.33-.4.43-.63.1-.25.16-.5.16-.78 0-.3-.05-.55-.16-.8-.1-.23-.24-.45-.43-.63-.18-.18-.4-.32-.64-.43-.24-.1-.5-.15-.77-.15z" fill="#404348" fill-rule="evenodd"/>
</svg>