<svg width="28" height="28" viewBox="0 0 28 28" xmlns="http://www.w3.org/2000/svg">
  <title>Search</title>
  <desc>Search icon</desc>
  <path d="M21.98 22.25c.08.1.12.2.12.32 0 .13-.05.23-.15.32-.04.03-.08.06-.14.07-.04.02-.1.03-.15.03-.06 0-.12 0-.18-.04-.06-.02-.1-.05-.15-.1l-5.35-5.84c-.3.24-.62.46-.95.64-.33.2-.67.34-1.02.46-.36.13-.73.22-1.1.28-.38.07-.76.1-1.15.1-.45 0-.9-.04-1.33-.13-.43-.08-.85-.2-1.25-.38-.4-.17-.8-.38-1.16-.63-.36-.24-.7-.53-1.02-.85-.32-.3-.6-.66-.85-1.03-.24-.38-.45-.76-.62-1.17-.16-.4-.3-.82-.37-1.25-.1-.44-.13-.88-.13-1.33 0-.45.04-.9.13-1.33.08-.43.2-.85.38-1.25s.4-.8.63-1.16c.25-.36.53-.7.85-1.02.3-.32.66-.6 1.03-.85.38-.24.76-.45 1.17-.62.4-.15.82-.28 1.25-.37.44-.1.88-.13 1.33-.13.45 0 .9.04 1.33.13.43.1.85.22 1.25.38.4.18.8.4 1.16.63.36.25.7.53 1.02.85.32.32.6.66.85 1.03.24.38.45.76.62 1.17.16.4.3.82.37 1.25.1.44.13.88.13 1.33 0 .44-.04.87-.12 1.3-.1.4-.2.82-.36 1.22-.16.4-.36.77-.6 1.13-.22.36-.48.7-.78 1.02l5.34 5.83zM5.9 11.75c0 .8.15 1.57.46 2.28.3.7.72 1.32 1.25 1.86.55.52 1.16.93 1.87 1.24.7.3 1.47.46 2.28.46.8 0 1.57-.15 2.28-.46.7-.3 1.32-.72 1.86-1.25.52-.55.93-1.16 1.24-1.87.3-.7.46-1.47.46-2.28 0-.8-.15-1.56-.46-2.27-.3-.7-.72-1.33-1.25-1.86-.55-.53-1.16-.95-1.87-1.25-.7-.3-1.47-.46-2.28-.46-.8 0-1.57.16-2.28.47-.7.3-1.32.72-1.86 1.25-.52.53-.93 1.15-1.24 1.86-.3.7-.46 1.47-.46 2.27z" fill="#404348" stroke="#404348" fill-rule="evenodd"/>
</svg>