<svg width="28" height="28" viewBox="0 0 28 28" xmlns="http://www.w3.org/2000/svg">
  <title>Full star rating</title>
  <desc>Full star</desc>
  <path d="M19.5 22h-.12l-.1-.06L14 19.07l-5.26 2.87c-.08.05-.17.07-.27.06-.1 0-.18-.03-.26-.1-.07-.04-.12-.12-.16-.2C8 21.6 8 21.5 8 21.4l.96-5.75-3.8-3.8c-.08-.08-.12-.16-.15-.25 0-.1 0-.18.03-.27.02-.1.07-.17.15-.23.07-.06.15-.1.24-.1l5.75-.97 2.38-4.77c.05-.1.1-.16.2-.2C13.8 5 13.9 5 14 5c.1 0 .2.02.27.07.08.05.14.12.18.2l2.4 4.78 5.74.96c.08.03.16.06.23.12s.12.14.15.23c.03.1.04.18 0 .27 0 .1-.05.17-.12.24l-3.82 3.8.96 5.76c0 .1 0 .2-.03.27-.04.08-.1.16-.18.2-.05.04-.1.06-.15.08l-.15.02z" fill="#404348" fill-rule="evenodd"/>
</svg>